<svg xmlns="http://www.w3.org/2000/svg" viewBox="0 0 317 643" width="285" height="611"><defs><style>@import url('https://fonts.googleapis.com/css2?family=Caveat+Brush&amp;family=Source+Code+Pro&amp;family=Source+Sans+Pro&amp;family=Source+Serif+Pro&amp;display=swap');</style></defs><g id="500f42c0-244a-41bd-32f4-437446d5bcee_svg" class="tl-centered-g" transform="translate(16, 16) rotate(0, 142.5, 191)"><g opacity="1"><path class="tl-stroke-hitarea" d="M 69.75,95.42 Q 69.75,95.42 72.67,95.04 75.59,94.66 79.53,94.04 83.48,93.41 91.31,97.82 99.14,102.23 111.21,113.90 123.29,125.57 136.44,142.78 149.58,159.98 159.53,175.54 169.47,191.09 179.67,210.67 189.86,230.25 197.30,248.70 204.73,267.15 208.84,280.95 212.95,294.75 213.18,303.25 213.42,311.74 209.05,316.46 204.69,321.18 193.83,314.64 182.97,308.10 173.57,299.03 164.18,289.96 149.10,261.60 134.02,233.23 121.71,208.89 109.41,184.56 92.54,152.10 75.68,119.65 65.24,99.70 54.80,79.76 50.16,69.18 45.51,58.61 45.46,58.49 45.42,58.36 45.40,58.23 45.39,58.10 45.40,57.97 45.42,57.84 45.46,57.72 45.51,57.60 45.58,57.49 45.66,57.38 45.76,57.30 45.86,57.21 45.97,57.15 46.09,57.09 46.22,57.06 46.34,57.02 46.47,57.02 46.61,57.02 46.73,57.06 46.86,57.09 46.98,57.15 47.09,57.21 47.19,57.30 47.29,57.38 47.36,57.49 47.44,57.60 61.44,65.64 75.45,73.68 98.17,95.09 120.89,116.51 139.45,136.83 158.02,157.15 178.58,182.94 199.14,208.72 218.14,243.16 237.15,277.61 248.08,300.88 259.02,324.15 262.83,336.48 266.65,348.81 265.17,352.08 263.69,355.36 263.72,355.49 263.74,355.62 263.73,355.75 263.73,355.88 263.69,356.00 263.65,356.13 263.58,356.24 263.51,356.35 263.42,356.44 263.33,356.54 263.22,356.60 263.10,356.67 262.98,356.71 262.85,356.75 262.72,356.76 262.59,356.77 262.46,356.74 262.33,356.72 262.21,356.66 262.10,356.61 261.99,356.53 261.89,356.45 261.81,356.35 261.73,356.24 261.67,356.12 261.62,356.00 249.52,343.54 237.41,331.07 209.81,296.50 182.21,261.93 152.43,220.91 122.64,179.88 95.89,141.33 69.14,102.78 53.47,79.92 37.79,57.06 33.83,51.14 29.88,45.22 29.82,45.11 29.75,44.99 29.72,44.86 29.69,44.74 29.69,44.60 29.69,44.47 29.73,44.35 29.76,44.22 29.82,44.10 29.88,43.99 29.97,43.89 30.05,43.79 30.16,43.72 30.27,43.64 30.39,43.60 30.51,43.55 30.64,43.54 30.77,43.52 30.90,43.54 31.03,43.55 31.16,43.60 31.28,43.65 31.39,43.72 31.49,43.80 31.58,43.90 31.67,43.99 35.01,47.36 38.36,50.73 78.60,100.02 118.84,149.31 118.92,149.46 119.01,149.61 119.05,149.79 119.08,149.96 119.06,150.13 119.04,150.31 118.96,150.46 118.88,150.62 118.76,150.75 118.64,150.87 118.48,150.95 118.32,151.03 118.15,151.06 117.97,151.08 117.80,151.05 117.63,151.02 117.47,150.93 117.32,150.85 117.20,150.72 117.08,150.59 117.01,150.43 116.94,150.26 116.93,150.09 116.91,149.91 116.95,149.74 116.99,149.57 117.09,149.42 117.18,149.28 117.32,149.16 117.45,149.05 117.62,148.99 117.78,148.93 117.96,148.92 118.13,148.92 118.30,148.97 118.47,149.02 118.61,149.12 118.76,149.22 118.86,149.36 118.96,149.51 119.02,149.67 119.07,149.84 119.07,150.02 119.06,150.19 119.00,150.36 118.94,150.52 118.84,150.66 118.73,150.80 118.58,150.89 118.43,150.99 118.26,151.03 118.09,151.08 117.92,151.06 117.74,151.05 117.58,150.98 117.42,150.91 117.29,150.80 117.15,150.68 117.15,150.68 117.15,150.68 76.98,101.47 36.81,52.26 33.34,48.74 29.88,45.22 29.82,45.11 29.75,44.99 29.72,44.86 29.69,44.74 29.69,44.60 29.69,44.47 29.73,44.35 29.76,44.22 29.82,44.10 29.88,43.99 29.97,43.89 30.05,43.79 30.16,43.72 30.27,43.64 30.39,43.60 30.51,43.55 30.64,43.54 30.77,43.52 30.90,43.54 31.03,43.55 31.16,43.60 31.28,43.65 31.39,43.72 31.49,43.80 31.58,43.90 31.67,43.99 35.63,49.91 39.58,55.83 55.25,78.69 70.92,101.55 97.66,140.08 124.39,178.61 154.15,219.59 183.91,260.58 211.44,295.07 238.98,329.56 251.34,342.46 263.69,355.36 263.72,355.49 263.74,355.62 263.73,355.75 263.73,355.88 263.69,356.00 263.65,356.13 263.58,356.24 263.51,356.35 263.42,356.44 263.33,356.54 263.22,356.60 263.10,356.67 262.98,356.71 262.85,356.75 262.72,356.76 262.59,356.77 262.46,356.74 262.33,356.72 262.21,356.66 262.10,356.61 261.99,356.53 261.89,356.45 261.81,356.35 261.73,356.24 261.67,356.12 261.62,356.00 263.11,352.54 264.60,349.08 260.82,337.08 257.05,325.07 246.15,301.86 235.24,278.66 216.34,244.36 197.44,210.07 176.93,184.34 156.41,158.62 137.90,138.35 119.39,118.09 96.87,96.82 74.35,75.55 59.93,67.08 45.51,58.61 45.46,58.49 45.42,58.36 45.40,58.23 45.39,58.10 45.40,57.97 45.42,57.84 45.46,57.72 45.51,57.60 45.58,57.49 45.66,57.38 45.76,57.30 45.86,57.21 45.97,57.15 46.09,57.09 46.22,57.06 46.34,57.02 46.47,57.02 46.60,57.02 46.73,57.06 46.86,57.09 46.98,57.15 47.09,57.21 47.19,57.30 47.29,57.38 47.36,57.49 47.44,57.60 52.08,68.17 56.73,78.75 67.17,98.70 77.61,118.64 94.48,151.11 111.35,183.57 123.65,207.89 135.95,232.21 150.84,260.31 165.72,288.42 174.92,297.33 184.12,306.24 194.76,312.80 205.40,319.37 208.37,315.40 211.34,311.43 211.07,303.40 210.81,295.36 206.72,281.68 202.64,267.99 195.24,249.64 187.84,231.30 177.68,211.82 167.51,192.34 157.60,176.88 147.69,161.43 134.64,144.38 121.58,127.34 109.71,115.89 97.84,104.45 90.68,100.23 83.53,96.01 79.78,96.77 76.03,97.54 73.14,98.05 70.24,98.57 70.05,98.58 69.85,98.58 69.67,98.54 69.48,98.50 69.30,98.42 69.13,98.33 68.98,98.21 68.84,98.09 68.72,97.93 68.61,97.78 68.53,97.60 68.46,97.43 68.43,97.24 68.40,97.05 68.42,96.85 68.44,96.66 68.50,96.48 68.56,96.30 68.67,96.14 68.77,95.98 68.91,95.84 69.05,95.71 69.22,95.62 69.38,95.52 69.57,95.47 Z"/><path d="M 69.75,95.42 Q 69.75,95.42 72.67,95.04 75.59,94.66 79.53,94.04 83.48,93.41 91.31,97.82 99.14,102.23 111.21,113.90 123.29,125.57 136.44,142.78 149.58,159.98 159.53,175.54 169.47,191.09 179.67,210.67 189.86,230.25 197.30,248.70 204.73,267.15 208.84,280.95 212.95,294.75 213.18,303.25 213.42,311.74 209.05,316.46 204.69,321.18 193.83,314.64 182.97,308.10 173.57,299.03 164.18,289.96 149.10,261.60 134.02,233.23 121.71,208.89 109.41,184.56 92.54,152.10 75.68,119.65 65.24,99.70 54.80,79.76 50.16,69.18 45.51,58.61 45.46,58.49 45.42,58.36 45.40,58.23 45.39,58.10 45.40,57.97 45.42,57.84 45.46,57.72 45.51,57.60 45.58,57.49 45.66,57.38 45.76,57.30 45.86,57.21 45.97,57.15 46.09,57.09 46.22,57.06 46.34,57.02 46.47,57.02 46.61,57.02 46.73,57.06 46.86,57.09 46.98,57.15 47.09,57.21 47.19,57.30 47.29,57.38 47.36,57.49 47.44,57.60 61.44,65.64 75.45,73.68 98.17,95.09 120.89,116.51 139.45,136.83 158.02,157.15 178.58,182.94 199.14,208.72 218.14,243.16 237.15,277.61 248.08,300.88 259.02,324.15 262.83,336.48 266.65,348.81 265.17,352.08 263.69,355.36 263.72,355.49 263.74,355.62 263.73,355.75 263.73,355.88 263.69,356.00 263.65,356.13 263.58,356.24 263.51,356.35 263.42,356.44 263.33,356.54 263.22,356.60 263.10,356.67 262.98,356.71 262.85,356.75 262.72,356.76 262.59,356.77 262.46,356.74 262.33,356.72 262.21,356.66 262.10,356.61 261.99,356.53 261.89,356.45 261.81,356.35 261.73,356.24 261.67,356.12 261.62,356.00 249.52,343.54 237.41,331.07 209.81,296.50 182.21,261.93 152.43,220.91 122.64,179.88 95.89,141.33 69.14,102.78 53.47,79.92 37.79,57.06 33.83,51.14 29.88,45.22 29.82,45.11 29.75,44.99 29.72,44.86 29.69,44.74 29.69,44.60 29.69,44.47 29.73,44.35 29.76,44.22 29.82,44.10 29.88,43.99 29.97,43.89 30.05,43.79 30.16,43.72 30.27,43.64 30.39,43.60 30.51,43.55 30.64,43.54 30.77,43.52 30.90,43.54 31.03,43.55 31.16,43.60 31.28,43.65 31.39,43.72 31.49,43.80 31.58,43.90 31.67,43.99 35.01,47.36 38.36,50.73 78.60,100.02 118.84,149.31 118.92,149.46 119.01,149.61 119.05,149.79 119.08,149.96 119.06,150.13 119.04,150.31 118.96,150.46 118.88,150.62 118.76,150.75 118.64,150.87 118.48,150.95 118.32,151.03 118.15,151.06 117.97,151.08 117.80,151.05 117.63,151.02 117.47,150.93 117.32,150.85 117.20,150.72 117.08,150.59 117.01,150.43 116.94,150.26 116.93,150.09 116.91,149.91 116.95,149.74 116.99,149.57 117.09,149.42 117.18,149.28 117.32,149.16 117.45,149.05 117.62,148.99 117.78,148.93 117.96,148.92 118.13,148.92 118.30,148.97 118.47,149.02 118.61,149.12 118.76,149.22 118.86,149.36 118.96,149.51 119.02,149.67 119.07,149.84 119.07,150.02 119.06,150.19 119.00,150.36 118.94,150.52 118.84,150.66 118.73,150.80 118.58,150.89 118.43,150.99 118.26,151.03 118.09,151.08 117.92,151.06 117.74,151.05 117.58,150.98 117.42,150.91 117.29,150.80 117.15,150.68 117.15,150.68 117.15,150.68 76.98,101.47 36.81,52.26 33.34,48.74 29.88,45.22 29.82,45.11 29.75,44.99 29.72,44.86 29.69,44.74 29.69,44.60 29.69,44.47 29.73,44.35 29.76,44.22 29.82,44.10 29.88,43.99 29.97,43.89 30.05,43.79 30.16,43.72 30.27,43.64 30.39,43.60 30.51,43.55 30.64,43.54 30.77,43.52 30.90,43.54 31.03,43.55 31.16,43.60 31.28,43.65 31.39,43.72 31.49,43.80 31.58,43.90 31.67,43.99 35.63,49.91 39.58,55.83 55.25,78.69 70.92,101.55 97.66,140.08 124.39,178.61 154.15,219.59 183.91,260.58 211.44,295.07 238.98,329.56 251.34,342.46 263.69,355.36 263.72,355.49 263.74,355.62 263.73,355.75 263.73,355.88 263.69,356.00 263.65,356.13 263.58,356.24 263.51,356.35 263.42,356.44 263.33,356.54 263.22,356.60 263.10,356.67 262.98,356.71 262.85,356.75 262.72,356.76 262.59,356.77 262.46,356.74 262.33,356.72 262.21,356.66 262.10,356.61 261.99,356.53 261.89,356.45 261.81,356.35 261.73,356.24 261.67,356.12 261.62,356.00 263.11,352.54 264.60,349.08 260.82,337.08 257.05,325.07 246.15,301.86 235.24,278.66 216.34,244.36 197.44,210.07 176.93,184.34 156.41,158.62 137.90,138.35 119.39,118.09 96.87,96.82 74.35,75.55 59.93,67.08 45.51,58.61 45.46,58.49 45.42,58.36 45.40,58.23 45.39,58.10 45.40,57.97 45.42,57.84 45.46,57.72 45.51,57.60 45.58,57.49 45.66,57.38 45.76,57.30 45.86,57.21 45.97,57.15 46.09,57.09 46.22,57.06 46.34,57.02 46.47,57.02 46.60,57.02 46.73,57.06 46.86,57.09 46.98,57.15 47.09,57.21 47.19,57.30 47.29,57.38 47.36,57.49 47.44,57.60 52.08,68.17 56.73,78.75 67.17,98.70 77.61,118.64 94.48,151.11 111.35,183.57 123.65,207.89 135.95,232.21 150.84,260.31 165.72,288.42 174.92,297.33 184.12,306.24 194.76,312.80 205.40,319.37 208.37,315.40 211.34,311.43 211.07,303.40 210.81,295.36 206.72,281.68 202.64,267.99 195.24,249.64 187.84,231.30 177.68,211.82 167.51,192.34 157.60,176.88 147.69,161.43 134.64,144.38 121.58,127.34 109.71,115.89 97.84,104.45 90.68,100.23 83.53,96.01 79.78,96.77 76.03,97.54 73.14,98.05 70.24,98.57 70.05,98.58 69.85,98.58 69.67,98.54 69.48,98.50 69.30,98.42 69.13,98.33 68.98,98.21 68.84,98.09 68.72,97.93 68.61,97.78 68.53,97.60 68.46,97.43 68.43,97.24 68.40,97.05 68.42,96.85 68.44,96.66 68.50,96.48 68.56,96.30 68.67,96.14 68.77,95.98 68.91,95.84 69.05,95.71 69.22,95.62 69.38,95.52 69.57,95.47 Z" fill="#ebbb38" stroke="#ebbb38" stroke-width="1" stroke-linejoin="round" stroke-linecap="round" pointer-events="none"/></g></g><g id="0d41c7bf-029f-4ac1-1a87-63a9efc12789_svg" class="tl-centered-g" transform="translate(187, 102) rotate(0, 45, 262.5)"><g pointer-events="none" opacity="1"><path class="tl-stroke-hitarea" d="M 89.02,525.16 Q 89.02,525.16 77.85,459.78 66.67,394.39 55.48,329.01 44.30,263.63 33.11,198.25 21.92,132.87 10.73,67.48 -0.46,2.10 -0.46,1.97 -0.46,1.84 -0.42,1.72 -0.38,1.59 -0.30,1.48 -0.22,1.38 -0.11,1.30 -0.00,1.23 0.11,1.19 0.24,1.16 0.37,1.16 0.50,1.17 0.63,1.22 0.75,1.27 0.85,1.35 0.95,1.43 1.02,1.55 1.09,1.66 1.12,1.79 1.15,1.92 1.13,2.05 1.12,2.18 1.06,2.30 1.01,2.42 0.92,2.51 0.83,2.61 0.71,2.67 0.60,2.74 0.47,2.76 0.34,2.78 0.21,2.76 0.08,2.74 -0.03,2.68 -0.15,2.62 -0.24,2.52 -0.33,2.43 -0.38,2.31 -0.44,2.19 -0.46,2.06 -0.47,1.93 -0.44,1.80 -0.42,1.67 -0.35,1.56 -0.28,1.44 -0.18,1.36 -0.08,1.27 0.03,1.22 0.15,1.17 0.28,1.16 0.42,1.16 0.54,1.19 0.67,1.22 0.78,1.30 0.89,1.37 0.97,1.48 1.05,1.58 1.09,1.70 1.14,1.83 1.14,1.83 1.14,1.83 12.36,67.21 23.58,132.58 34.80,197.96 46.03,263.33 57.26,328.71 68.49,394.08 79.73,459.45 90.97,524.83 90.97,524.95 90.98,525.07 90.96,525.18 90.93,525.30 90.88,525.41 90.83,525.52 90.76,525.61 90.69,525.70 90.59,525.77 90.50,525.85 90.39,525.89 90.28,525.94 90.16,525.96 90.04,525.98 89.92,525.97 89.81,525.96 89.69,525.93 89.58,525.89 89.48,525.83 89.38,525.77 89.29,525.68 89.21,525.60 89.15,525.49 89.09,525.39 89.06,525.28 Z"/><path d="M 89.02,525.16 Q 89.02,525.16 77.85,459.78 66.67,394.39 55.48,329.01 44.30,263.63 33.11,198.25 21.92,132.87 10.73,67.48 -0.46,2.10 -0.46,1.97 -0.46,1.84 -0.42,1.72 -0.38,1.59 -0.30,1.48 -0.22,1.38 -0.11,1.30 -0.00,1.23 0.11,1.19 0.24,1.16 0.37,1.16 0.50,1.17 0.63,1.22 0.75,1.27 0.85,1.35 0.95,1.43 1.02,1.55 1.09,1.66 1.12,1.79 1.15,1.92 1.13,2.05 1.12,2.18 1.06,2.30 1.01,2.42 0.92,2.51 0.83,2.61 0.71,2.67 0.60,2.74 0.47,2.76 0.34,2.78 0.21,2.76 0.08,2.74 -0.03,2.68 -0.15,2.62 -0.24,2.52 -0.33,2.43 -0.38,2.31 -0.44,2.19 -0.46,2.06 -0.47,1.93 -0.44,1.80 -0.42,1.67 -0.35,1.56 -0.28,1.44 -0.18,1.36 -0.08,1.27 0.03,1.22 0.15,1.17 0.28,1.16 0.42,1.16 0.54,1.19 0.67,1.22 0.78,1.30 0.89,1.37 0.97,1.48 1.05,1.58 1.09,1.70 1.14,1.83 1.14,1.83 1.14,1.83 12.36,67.21 23.58,132.58 34.80,197.96 46.03,263.33 57.26,328.71 68.49,394.08 79.73,459.45 90.97,524.83 90.97,524.95 90.98,525.07 90.96,525.18 90.93,525.30 90.88,525.41 90.83,525.52 90.76,525.61 90.69,525.70 90.59,525.77 90.50,525.85 90.39,525.89 90.28,525.94 90.16,525.96 90.04,525.98 89.92,525.97 89.81,525.96 89.69,525.93 89.58,525.89 89.48,525.83 89.38,525.77 89.29,525.68 89.21,525.60 89.15,525.49 89.09,525.39 89.06,525.28 Z" fill="#ebbb38" stroke="#ebbb38" stroke-width="2.11" stroke-dasharray="none" stroke-dashoffset="none" stroke-linecap="round" stroke-linejoin="round" pointer-events="stroke"/><path class="tl-stroke-hitarea" d="M -5.543746739204862,15.008893100144178 L 0,0 10.22,12.305472058370647"/><path d="M -5.543746739204862,15.008893100144178 L 0,0 10.22,12.305472058370647" fill="none" stroke="#ebbb38" stroke-width="4.23" stroke-linecap="round" stroke-linejoin="round" pointer-events="none"/></g></g><g fill="#ffc936" transform="translate(42.5, 449) rotate(0, 97.5, 81.5)"><text font-family="&quot;Source Serif Pro&quot;, serif" font-size="28px" text-anchor="middle" alignment-baseline="central" text-align="center" y="18.2" x="97.5">pee</text></g></svg>