<?xml version="1.0" encoding="UTF-8" standalone="no"?>
<!DOCTYPE svg PUBLIC "-//W3C//DTD SVG 1.1//EN" "http://www.w3.org/Graphics/SVG/1.1/DTD/svg11.dtd">
<!-- Created with Vectornator (http://vectornator.io/) -->
<svg height="100%" stroke-miterlimit="10" style="fill-rule:nonzero;clip-rule:evenodd;stroke-linecap:round;stroke-linejoin:round;" version="1.1" viewBox="0 0 512 512" width="100%" xml:space="preserve" xmlns="http://www.w3.org/2000/svg" xmlns:vectornator="http://vectornator.io" xmlns:xlink="http://www.w3.org/1999/xlink">
<defs/>
<clipPath id="ArtboardFrame">
<rect height="512" width="512" x="0" y="0"/>
</clipPath>
<g clip-path="url(#ArtboardFrame)" id="Untitled" vectornator:layerName="Untitled">
<path d="M80.84 0L431.16 0C475.807-9.84864e-07 512 36.1933 512 80.84L512 431.16C512 475.807 475.807 512 431.16 512L80.84 512C36.1933 512-4.64179e-06 475.807-7.38648e-07 431.16L-7.38648e-07 80.84C3.46425e-06 36.1933 36.1933 1.33603e-06 80.84 0Z" fill="#00006b" fill-rule="evenodd" opacity="1" stroke="none"/>
<path d="M245.2 465.87C214.77 465.87 190.53 459.43 173.14 446.75C154.6 433.23 146 412 147.65 383.59C147.94 378.5 148.59 372.68 149.58 366.31C150.53 360.049 151.829 353.846 153.47 347.73L180.2 234.88L129.31 234.88C126.285 234.881 123.427 233.495 121.554 231.12C119.682 228.744 119.002 225.641 119.71 222.7L136.81 151.63C137.881 147.196 141.848 144.072 146.41 144.07L200.15 144.07L217.38 69.37C218.152 66.0165 220.615 63.3072 223.88 62.22L324.88 28.54C328.271 27.4104 332.009 28.2029 334.65 30.6117C337.291 33.0205 338.423 36.6691 337.61 40.15L266.73 343.15C266.28 345.42 265.86 348.08 265.53 350.72C265.2 353.36 264.97 355.72 264.87 357.53C264.67 360.98 264.77 367.06 267.63 368.97C271.27 371.42 276.89 372.66 284.35 372.66C288.468 372.677 292.579 372.342 296.64 371.66C301.35 370.85 305.21 370.11 308.47 369.38C311.775 368.646 315.226 369.658 317.612 372.06C319.998 374.462 320.986 377.92 320.23 381.22L304.35 450.5C303.636 453.601 301.474 456.169 298.54 457.4C291.93 460.17 286.48 461.19 275.77 463.06C265.679 464.869 255.452 465.809 245.2 465.87ZM141.84 215.14L192.68 215.14C195.7 215.138 198.555 216.518 200.428 218.887C202.302 221.256 202.988 224.352 202.29 227.29L172.6 352.59C171.115 358.1 169.94 363.689 169.08 369.33C168.19 375.09 167.61 380.27 167.35 384.73C166.12 406.29 171.81 421.36 184.77 430.81C198.71 441 219 446.13 245.2 446.13C254.319 446.069 263.415 445.226 272.39 443.61C278.96 442.46 282.97 441.74 286.33 440.79L297.64 391.47C293.243 392.124 288.805 392.458 284.36 392.47C272.91 392.47 263.59 390.1 256.65 385.47C248.26 379.86 244.39 370.11 245.17 356.47C245.3 354.18 245.56 351.47 245.95 348.37C246.34 345.27 246.83 342.11 247.45 339.03L314.36 52.86L235.36 79.2L217.61 156.2C216.576 160.679 212.587 163.851 207.99 163.85L154.19 163.85L141.84 215.14Z" fill="#f7ff85" fill-rule="evenodd" opacity="1" stroke="none"/>
<path d="M321.17 235.17C318.921 235.158 316.799 234.124 315.404 232.359C314.009 230.595 313.492 228.291 314 226.1L331.74 149.44C332.226 147.326 333.614 145.53 335.538 144.528C337.462 143.525 339.729 143.417 341.74 144.23L438.18 182.65C441.071 183.796 442.937 186.628 442.849 189.736C442.762 192.845 440.741 195.568 437.79 196.55L323.52 234.79C322.763 235.044 321.969 235.172 321.17 235.17Z" fill="#f7ff85" fill-rule="evenodd" opacity="1" stroke="none"/>
</g>
</svg>
